<svg version="1.1" id="lilac-infotech-logo" xmlns="http://www.w3.org/2000/svg" xmlns:xlink="http://www.w3.org/1999/xlink" x="0px" y="0px" viewBox="0 0 200 78.5" style="enable-background:new 0 0 200 78.5;" xml:space="preserve" class="svg replaced-svg">
<g class="logo-icon">
	<path fill="#26BCB1" d="M22.1,57.4H0L19.5,0.5h22L22.1,57.4z"></path>
	<path fill="#A0C129" d="M54,57.4H22.1L29,78h31.9L54,57.4z"></path>
</g>
<g class="logo-text">
	<path fill="#001A30" d="M80,60V0.9h8.5v50.7h13.6V60H80z"></path>
	<path fill="#001A30" d="M134.1,60h-8.5V0.5h8.5V60z"></path>
	<path fill="#001A30" d="M158.5,12.4c0-2.7-1.2-4-3.7-4h-0.1c-2.5,0-3.7,1.3-3.7,4v8h-8.5v-8c0-8.3,4.1-12.4,12.3-12.4   S167,4.1,167,12.4v36.2c0,8.3-4.1,12.4-12.2,12.4c-8.1,0-12.2-4.1-12.3-12.4v-9.9c0-8.3,3.1-12.4,9.4-12.5c2.3-0.1,4.7,0.6,6.6,1.9   V12.4z M151.1,48.6c0,2.7,1.2,4,3.7,4s3.7-1.3,3.7-4v-9.9c0-2.7-1.2-4-3.7-4s-3.7,1.3-3.7,4V48.6z"></path>
	<path fill="#001A30" d="M200,48.6c0,8.3-4.1,12.4-12.3,12.4s-12.3-4.1-12.2-12.4V12.4c0-8.3,4.1-12.4,12.2-12.4S200,4.1,200,12.4v8   h-8.5v-8c0-2.7-1.2-4-3.7-4h-0.1c-2.5,0-3.7,1.3-3.7,4v36.2c0,2.7,1.2,4,3.7,4s3.7-1.3,3.7-4v-8h8.5v8H200z"></path>
	<path fill="#001A30" d="M81.7,67.6v10.8h-1.8V67.6H81.7z"></path>
	<path fill="#001A30" d="M99.4,78.4h-1.8l-5.3-8v8h-1.8V67.6h1.8l5.3,8v-8h1.8V78.4z"></path>
	<path fill="#001A30" d="M114.5,67.6V69H110v3.2h3.6v1.4H110v4.7h-1.8V67.6H114.5z"></path>
	<path fill="#001A30" d="M124.8,77.8c-0.8-0.5-1.5-1.2-2-2c-1-1.8-1-3.9,0-5.7c0.5-0.8,1.2-1.5,2-2c1.7-0.9,3.8-0.9,5.5,0   c0.8,0.5,1.5,1.2,2,2c1,1.8,1,3.9,0,5.7c-0.5,0.8-1.2,1.5-2,2C128.7,78.7,126.6,78.7,124.8,77.8z M129.5,76.5   c0.6-0.3,1-0.8,1.3-1.4c0.3-0.7,0.5-1.4,0.5-2.1s-0.1-1.4-0.5-2.1c-0.3-0.6-0.7-1.1-1.3-1.4c-1.2-0.6-2.6-0.6-3.8,0   c-0.6,0.3-1,0.8-1.3,1.4s-0.5,1.4-0.5,2.1s0.2,1.4,0.5,2.1c0.3,0.6,0.7,1.1,1.3,1.4C126.9,77.1,128.3,77.1,129.5,76.5z"></path>
	<path fill="#001A30" d="M148.3,67.6V69h-2.9v9.3h-1.8V69h-2.9v-1.4H148.3z"></path>
	<path fill="#001A30" d="M158.4,69v3.2h3.7v1.4h-3.7v3.3h4.2v1.4h-5.9V67.6h5.9V69H158.4z"></path>
	<path fill="#001A30" d="M171.4,70.1c0.5-0.8,1.2-1.5,2-2c1.8-1,4-0.9,5.8,0.1c0.9,0.6,1.6,1.4,1.9,2.4H179c-0.2-0.5-0.7-1-1.2-1.3   s-1.1-0.4-1.7-0.4c-0.7,0-1.3,0.2-1.9,0.5c-0.6,0.3-1,0.8-1.3,1.4c-0.6,1.3-0.6,2.9,0,4.2c0.3,0.6,0.7,1.1,1.3,1.4s1.2,0.5,1.9,0.5   c0.6,0,1.2-0.1,1.7-0.4s0.9-0.7,1.2-1.2h2.1c-0.4,1-1.1,1.8-1.9,2.4c-1.8,1.1-4,1.1-5.8,0.1c-0.8-0.5-1.5-1.2-2-2   C170.4,74,170.4,71.9,171.4,70.1L171.4,70.1z"></path>
	<path fill="#001A30" d="M198.3,67.6v10.8h-1.8v-4.7h-5.1v4.7h-1.8V67.6h1.8v4.6h5.1v-4.6H198.3z"></path>
	<path fill="#001A30" d="M108.5,13.7h8.5V60h-8.5V13.7z M108.5,0.5h8.5v9.2h-8.5V0.5z"></path>
</g>
</svg>